<?xml version="1.0" standalone="no"?>
<!DOCTYPE svg PUBLIC "-//W3C//DTD SVG 20010904//EN"
 "http://www.w3.org/TR/2001/REC-SVG-20010904/DTD/svg10.dtd">
<svg version="1.0" xmlns="http://www.w3.org/2000/svg"
 width="1024.000000pt" height="1024.000000pt" viewBox="0 0 1024.000000 1024.000000"
 preserveAspectRatio="xMidYMid meet">

<g transform="translate(0.000000,1024.000000) scale(0.100000,-0.100000)"
fill="#000000" stroke="none">
<path d="M4815 8933 c-306 -12 -853 -127 -1105 -233 -41 -17 -131 -54 -200
-82 -69 -28 -136 -58 -150 -67 -14 -9 -43 -25 -65 -36 -208 -102 -497 -289
-667 -430 -33 -27 -81 -66 -106 -86 -95 -73 -367 -356 -457 -474 -27 -36 -53
-65 -56 -65 -8 0 -97 -128 -164 -234 -22 -35 -47 -71 -55 -81 -14 -16 -69
-112 -123 -215 -13 -25 -37 -70 -54 -100 -17 -30 -36 -73 -43 -95 -7 -22 -24
-62 -37 -88 -13 -27 -37 -85 -54 -130 -16 -45 -34 -91 -39 -102 -8 -19 -52
-179 -100 -364 -12 -46 -28 -122 -36 -170 -8 -47 -16 -95 -18 -106 -44 -242
-50 -314 -50 -595 0 -298 4 -349 59 -673 13 -79 30 -168 38 -198 8 -30 22 -88
32 -129 22 -102 76 -270 125 -390 45 -112 107 -249 130 -290 14 -25 36 -67 49
-95 50 -103 273 -461 307 -490 6 -5 47 -55 91 -110 210 -262 557 -580 818
-750 50 -32 107 -70 129 -84 101 -68 435 -236 594 -300 28 -12 76 -31 105 -42
28 -12 89 -32 133 -44 45 -12 86 -25 91 -28 6 -4 91 -26 189 -51 187 -47 420
-89 564 -103 133 -13 552 -9 680 5 186 21 505 86 675 137 61 18 137 41 170 50
72 21 288 107 405 162 47 23 102 48 122 57 33 15 164 88 208 116 8 5 28 17 44
26 61 34 314 209 366 254 30 26 77 62 104 80 90 61 481 463 551 567 6 8 21 28
35 43 14 15 48 61 74 101 27 41 57 83 67 94 22 26 176 298 250 443 104 206
186 439 263 752 67 274 73 307 86 490 26 355 21 665 -16 935 -17 128 -28 182
-76 360 -19 72 -43 161 -52 200 -9 38 -35 117 -57 175 -23 58 -50 130 -62 160
-70 185 -252 516 -391 712 -144 202 -389 477 -537 603 -45 39 -99 86 -119 105
-21 20 -73 62 -116 94 -44 33 -95 71 -114 86 -19 15 -73 50 -120 80 -47 29
-110 70 -140 90 -51 35 -367 200 -435 227 -16 7 -66 27 -110 44 -44 18 -84 35
-90 39 -18 14 -352 115 -425 129 -30 5 -113 23 -185 40 -156 35 -308 57 -509
71 -133 10 -222 10 -421 3z m219 -1448 c3 -8 15 -15 26 -15 92 0 169 -137 158
-278 l-5 -55 696 7 c818 9 924 12 950 26 13 6 28 7 44 1 26 -10 137 -131 137
-150 0 -7 -27 -11 -80 -11 -71 0 -81 -2 -91 -21 -9 -17 -13 -19 -20 -8 -5 8
-3 17 4 21 7 5 -25 8 -70 7 -46 -1 -83 -4 -84 -8 0 -3 -2 -14 -4 -24 -2 -13 2
-16 19 -13 14 2 23 -1 23 -8 0 -7 -13 -13 -29 -13 -15 0 -28 5 -28 10 0 5 -8
6 -17 2 -36 -15 -103 -17 -103 -3 0 9 -3 9 -10 -2 -6 -9 -10 -10 -10 -3 0 6 5
15 10 18 8 5 8 11 0 20 -15 18 -525 21 -514 3 6 -10 5 -10 -8 0 -12 10 -94 11
-383 6 l-369 -7 -22 -26 c-20 -22 -22 -33 -17 -73 7 -63 -1 -89 -39 -127 -31
-30 -31 -31 -8 -31 13 0 42 -12 63 -27 32 -22 51 -28 101 -28 70 -1 107 -18
181 -79 28 -23 62 -49 77 -59 15 -9 44 -34 65 -55 47 -47 225 -125 367 -162
l99 -25 20 -55 c12 -30 53 -101 93 -158 73 -103 96 -162 94 -238 -1 -16 3
-344 9 -729 6 -385 11 -908 11 -1162 l0 -463 -179 0 c-98 0 -193 3 -210 6
l-31 6 0 233 0 233 91 8 91 7 -6 411 c-3 226 -8 719 -12 1096 -3 377 -7 690
-9 697 -2 7 -53 37 -114 67 -60 30 -118 60 -128 65 -46 26 -245 101 -253 96
-6 -4 -10 -18 -10 -32 0 -15 -16 -44 -39 -72 -21 -25 -40 -51 -42 -57 -4 -9
-64 -65 -128 -117 -39 -32 -163 -49 -261 -37 -106 13 -151 25 -183 50 -30 24
-59 27 -51 5 10 -26 -47 -103 -244 -324 -31 -35 -66 -76 -77 -91 -11 -15 -34
-40 -50 -56 -17 -16 -43 -45 -57 -64 -14 -19 -53 -62 -85 -95 -84 -88 -186
-202 -197 -223 -9 -15 -8 -16 10 -2 33 26 210 203 249 250 37 44 160 180 240
264 70 74 91 103 43 57 -73 -68 -65 -44 10 34 77 80 142 158 142 171 1 14 37
54 49 54 6 0 51 -20 99 -44 48 -24 112 -54 142 -67 30 -12 81 -40 113 -62 127
-88 130 -142 27 -442 -15 -44 -40 -125 -55 -180 -65 -240 -87 -285 -137 -285
-27 0 -176 -81 -256 -139 -49 -36 -79 -66 -91 -92 -18 -38 -19 -45 -5 -152 14
-110 98 -454 149 -612 44 -135 65 -206 95 -322 16 -61 40 -139 53 -171 l25
-60 -40 -5 c-42 -6 -2460 3 -2467 8 -1 2 14 54 34 115 20 60 45 147 54 193 10
45 39 159 65 252 26 94 70 253 98 355 57 204 59 223 38 449 -12 129 -36 301
-44 309 -3 2 -21 -5 -40 -17 -34 -22 -113 -50 -196 -71 -25 -6 -55 -16 -67
-22 -12 -6 -32 -8 -45 -4 -20 5 -29 25 -66 143 -24 76 -59 190 -77 253 -18 63
-52 177 -74 253 -23 76 -41 141 -41 146 0 28 81 88 203 150 51 25 106 55 122
67 17 11 46 27 65 34 19 8 98 46 175 86 443 226 534 269 545 257 4 -4 12 -28
19 -53 22 -81 63 -214 88 -289 39 -118 112 -356 149 -491 19 -69 48 -168 64
-220 16 -52 42 -142 58 -200 43 -151 93 -313 102 -329 5 -9 15 10 29 55 12 38
37 116 56 174 19 58 41 132 49 165 7 33 26 105 41 160 14 55 39 150 56 210 83
316 100 377 124 455 14 47 34 123 44 170 33 148 51 200 69 200 22 0 265 -106
317 -139 68 -42 255 -134 261 -128 12 11 -7 44 -31 55 -14 7 -28 20 -32 29
-11 32 -64 87 -116 123 -42 29 -52 41 -52 64 0 26 8 33 75 68 41 22 93 51 115
66 22 14 60 37 85 50 25 13 50 28 55 34 7 7 7 9 0 5 -6 -3 -19 1 -30 9 -21 16
-19 16 53 19 37 1 49 8 89 47 45 45 45 46 33 83 -7 20 -10 51 -8 69 l4 33
-111 -2 c-60 -2 -118 2 -127 7 -11 5 -18 5 -18 -1 0 -6 -345 -9 -927 -7 -511
1 -795 -1 -633 -4 l295 -5 0 -45 0 -45 -372 0 c-204 0 -374 3 -378 7 -4 4 3
28 15 54 19 38 21 50 11 66 -23 37 -31 111 -15 136 l15 23 532 -3 c549 -3
1718 9 1727 18 3 3 7 44 9 90 4 97 -8 124 -63 151 -46 22 -94 11 -134 -30 -31
-32 -62 -101 -62 -138 0 -11 -4 -19 -10 -19 -13 0 -13 65 1 115 13 47 116 155
148 155 14 0 19 5 15 15 -4 8 -2 15 4 15 5 0 12 -7 16 -15z m1706 -501 c0 -2
-9 -4 -21 -4 -11 0 -18 4 -14 10 5 8 35 3 35 -6z m38 -3 c-4 -19 -22 -18 -26
2 -2 7 4 14 13 14 9 0 15 -7 13 -16z m117 -1 c-4 -11 -2 -20 4 -20 6 0 11 8
11 18 0 10 7 19 15 19 8 0 15 -4 15 -8 0 -4 20 -6 44 -4 39 3 44 1 48 -18 4
-22 2 -22 -98 -24 -86 -2 -102 1 -97 13 3 7 8 12 13 9 4 -2 16 4 26 15 24 24
27 24 19 0z m-98 -9 c0 -11 -5 -17 -9 -15 -4 3 -8 0 -8 -5 0 -6 -7 -11 -15
-11 -8 0 -15 5 -15 11 0 5 4 7 10 4 5 -3 15 3 22 15 16 25 17 25 15 1z m-346
2 c0 -5 2 -16 4 -25 2 -10 1 -18 -2 -18 -7 0 -32 33 -33 43 0 4 7 7 15 7 8 0
15 -3 16 -7z m-41 -7 c0 -2 3 -11 6 -20 3 -9 1 -16 -6 -16 -6 0 -9 4 -5 9 3 5
1 12 -5 16 -5 3 -10 -2 -11 -12 0 -16 -1 -16 -8 2 -8 19 -8 19 -19 0 -9 -16
-11 -17 -12 -4 0 9 3 19 7 22 7 8 53 10 53 3z m77 -21 c0 -8 -4 -12 -9 -9 -4
3 -8 9 -8 15 0 5 4 9 8 9 5 0 9 -7 9 -15z m22 -207 c147 -104 271 -196 336
-248 39 -32 99 -76 135 -98 36 -23 70 -46 77 -52 7 -5 28 -21 47 -34 19 -13
62 -47 95 -77 l61 -54 0 -1088 c0 -599 -2 -1092 -5 -1097 -3 -6 -117 -9 -263
-7 l-257 2 -5 1015 -5 1015 -95 91 c-156 148 -283 266 -341 316 -30 26 -70 62
-90 80 l-37 33 32 35 c74 83 216 210 235 210 11 0 47 -19 80 -42z m-1847 -930
c-7 -7 -12 -8 -12 -2 0 14 12 26 19 19 2 -3 -1 -11 -7 -17z"/>
<path d="M6671 7001 c-7 -5 -10 -14 -7 -20 11 -17 22 -13 22 9 0 11 0 20 -1
20 0 0 -6 -4 -14 -9z"/>
<path d="M6560 6985 c5 -7 7 -15 3 -18 -3 -4 1 -7 11 -7 9 0 14 5 11 10 -3 6
-1 10 4 10 6 0 11 -6 11 -13 0 -8 6 -14 14 -14 9 0 13 8 10 21 -3 21 -3 21 11
2 16 -21 29 -18 20 5 -4 10 -22 15 -55 15 -37 0 -47 -3 -40 -11z"/>
<path d="M5014 6611 c-18 -11 -35 -25 -39 -31 -4 -6 -15 -14 -24 -18 -37 -16
-181 -118 -178 -127 2 -5 21 -19 42 -30 22 -11 48 -28 59 -37 11 -10 23 -18
28 -18 4 0 8 -5 8 -11 0 -5 13 -27 29 -47 17 -20 33 -50 37 -65 6 -25 10 -27
36 -22 17 4 65 1 108 -6 70 -11 84 -10 146 7 79 22 121 59 160 141 35 75 31
130 -12 154 -17 9 -46 20 -65 24 -58 12 -150 42 -228 74 -41 17 -74 31 -75 31
0 0 -15 -9 -32 -19z"/>
<path d="M2681 6113 c7 -10 30 -37 51 -60 21 -24 38 -47 38 -52 0 -5 37 -47
83 -93 45 -46 102 -107 127 -135 25 -27 79 -86 120 -130 170 -181 266 -288
281 -313 18 -29 69 -73 76 -66 9 8 -286 362 -365 439 -32 30 -75 76 -96 101
-22 26 -56 64 -76 84 -45 46 -156 168 -192 210 -28 35 -73 48 -47 15z"/>
<path d="M3302 4869 c-33 -22 -72 -84 -72 -115 0 -42 40 -101 84 -122 54 -27
88 -28 141 -2 105 51 96 209 -13 251 -41 16 -105 10 -140 -12z"/>
<path d="M3283 4139 c-109 -54 -109 -192 0 -251 93 -52 207 19 207 128 0 48
-52 119 -99 132 -52 16 -59 15 -108 -9z"/>
<path d="M10080 80 l0 -80 80 0 80 0 0 80 0 80 -80 0 -80 0 0 -80z"/>
</g>
</svg>
